<svg width="56" height="56" viewBox="0 0 56 56" fill="none" xmlns="http://www.w3.org/2000/svg">
<circle cx="28" cy="28" r="28" fill="#202125"/>
<path d="M14.375 42.3542L14.7696 39.8172C14.9782 38.4763 15.8508 37.3322 17.136 36.8965C19.4009 36.1286 23.3012 35.0625 27.5 35.0625C31.6988 35.0625 35.5991 36.1286 37.864 36.8965C39.1492 37.3322 40.0218 38.4763 40.2304 39.8172L40.625 42.3542" stroke="#D9DBE9" stroke-width="2" stroke-linecap="round" stroke-linejoin="round"/>
<path d="M27.4999 28.5C31.527 28.5 34.7916 25.2354 34.7916 21.2083C34.7916 17.1812 31.527 13.9166 27.4999 13.9166C23.4728 13.9166 20.2083 17.1812 20.2083 21.2083C20.2083 25.2354 23.4728 28.5 27.4999 28.5Z" stroke="#D9DBE9" stroke-width="2" stroke-linecap="round" stroke-linejoin="round"/>
</svg>
